<?xml version="1.0" standalone="no"?>
<!DOCTYPE svg PUBLIC "-//W3C//DTD SVG 20010904//EN"
 "http://www.w3.org/TR/2001/REC-SVG-20010904/DTD/svg10.dtd">
<svg version="1.0" xmlns="http://www.w3.org/2000/svg"
 width="612.000000pt" height="612.000000pt" viewBox="0 0 612.000000 612.000000"
 preserveAspectRatio="xMidYMid meet">
<metadata>
Created by potrace 1.14, written by Peter Selinger 2001-2017
</metadata>
<g transform="translate(0.000000,612.000000) scale(0.100000,-0.100000)"
fill="#000000" stroke="none">
<path d="M3069 4301 c-29 -25 -42 -29 -77 -25 -41 4 -42 3 -66 -44 -40 -78
-141 -204 -195 -245 -38 -28 -60 -55 -85 -105 -21 -41 -53 -84 -83 -112 -28
-25 -85 -76 -127 -115 -42 -38 -87 -85 -99 -105 -12 -19 -34 -48 -49 -65 -15
-16 -28 -33 -28 -37 0 -3 -16 -16 -35 -28 l-35 -22 -75 44 c-42 24 -93 53
-113 65 l-38 22 -134 -134 c-120 -120 -139 -135 -170 -136 -29 0 -42 -9 -79
-52 -24 -29 -78 -90 -120 -136 -42 -46 -78 -86 -81 -90 -3 -3 -19 -16 -37 -28
-24 -18 -46 -23 -90 -23 l-59 0 -84 -101 c-47 -55 -95 -113 -108 -127 -12 -15
-53 -75 -90 -134 -37 -58 -80 -114 -96 -125 -16 -10 -38 -25 -51 -33 -12 -8
-52 -35 -89 -59 -49 -32 -72 -54 -87 -85 -16 -34 -28 -45 -78 -66 -33 -14 -58
-26 -57 -28 17 -16 199 -23 258 -10 44 10 52 9 103 -16 l54 -28 84 22 84 22
60 -31 59 -31 55 18 c59 21 58 21 146 -19 l62 -28 73 19 c40 11 123 32 185 49
l112 29 98 -48 c54 -26 202 -98 328 -160 127 -62 253 -123 280 -135 l50 -23
160 65 c88 35 167 67 175 70 125 51 236 93 245 93 6 0 29 -18 50 -40 21 -22
45 -40 53 -40 7 0 41 14 75 31 65 32 90 33 172 11 22 -6 104 -25 182 -41 l142
-31 98 29 c54 16 150 45 214 65 98 30 201 57 269 71 8 2 35 8 60 15 25 7 56
14 70 17 14 2 41 8 60 13 31 8 115 22 220 37 26 4 489 173 883 322 15 6 10 13
-30 41 -26 19 -133 98 -238 175 -104 78 -211 155 -237 173 -41 28 -103 94
-208 219 -14 17 -55 57 -93 89 -43 38 -90 93 -130 154 -50 76 -68 96 -94 102
-27 7 -42 27 -114 146 -83 140 -103 164 -174 217 -22 17 -51 40 -65 53 -27 24
-27 24 -86 27 -23 1 -46 5 -52 9 -5 3 -42 -29 -81 -73 -48 -53 -91 -89 -131
-110 -33 -18 -60 -35 -60 -39 0 -4 -21 -33 -46 -66 l-46 -59 -21 34 c-11 19
-44 71 -73 115 -30 45 -65 103 -79 130 -34 66 -40 73 -111 123 -66 45 -91 73
-169 190 -28 40 -66 85 -85 100 -48 37 -130 84 -130 74 0 -4 -4 -2 -8 4 -6 9
-17 5 -43 -16z"/>
</g>
</svg>
